<svg width="14" height="14" viewBox="0 0 14 14" fill="none" xmlns="http://www.w3.org/2000/svg">
<g clip-path="url(#clip0_744_1113)">
<path d="M1.55396 5.76367C1.23524 6.45924 1.06991 7.21524 1.06921 7.98034C1.06921 11.0633 3.7228 13.5628 6.99646 13.5628C10.2701 13.5628 12.9237 11.0633 12.9237 7.98034C12.9238 7.21506 12.7582 6.45889 12.4384 5.76367" stroke="#131F2A" stroke-width="1.5" stroke-linecap="round" stroke-linejoin="round"/>
<path d="M2.07251 0.868164L4.02493 5.09908" stroke="#131F2A" stroke-width="1.5" stroke-linecap="round" stroke-linejoin="round"/>
<path d="M9.9604 2.97818C10.4282 2.97818 10.8074 2.59897 10.8074 2.13118C10.8074 1.66339 10.4282 1.28418 9.9604 1.28418C9.49263 1.28418 9.1134 1.66339 9.1134 2.13118C9.1134 2.59897 9.49263 2.97818 9.9604 2.97818Z" stroke="#131F2A" stroke-width="1.5" stroke-linecap="round" stroke-linejoin="round"/>
<path d="M4.89355 2.67337C5.59168 2.59387 6.29382 2.55491 6.99645 2.5567C7.13878 2.5567 7.27995 2.55826 7.41995 2.56137" stroke="#131F2A" stroke-width="1.5" stroke-linecap="round" stroke-linejoin="round"/>
<path d="M12.075 3.40137C12.8724 3.75545 13.3449 4.19528 13.3449 4.67187C13.3449 5.83854 10.5018 6.78879 6.99419 6.78879C3.48658 6.78879 0.645752 5.84087 0.645752 4.67187C0.645752 4.26645 0.987585 3.88728 1.57909 3.56353" stroke="#131F2A" stroke-width="1.5" stroke-linecap="round" stroke-linejoin="round"/>
<path d="M5.75684 4.28787C6.15757 4.26162 6.57349 4.24762 6.99641 4.24762C8.24573 4.23731 9.49202 4.37139 10.7105 4.64721" stroke="#131F2A" stroke-width="1.5" stroke-linecap="round" stroke-linejoin="round"/>
<path d="M5.51477 1.28418C5.39396 1.28418 5.29602 1.18624 5.29602 1.06543C5.29602 0.944616 5.39396 0.84668 5.51477 0.84668" stroke="#131F2A" stroke-width="1.5"/>
<path d="M5.51477 1.28418C5.63558 1.28418 5.73352 1.18624 5.73352 1.06543C5.73352 0.944616 5.63558 0.84668 5.51477 0.84668" stroke="#131F2A" stroke-width="1.5"/>
<path d="M13.1262 1.28418C13.0054 1.28418 12.9075 1.18624 12.9075 1.06543C12.9075 0.944616 13.0054 0.84668 13.1262 0.84668" stroke="#131F2A" stroke-width="1.5"/>
<path d="M13.1262 1.28418C13.247 1.28418 13.345 1.18624 13.345 1.06543C13.345 0.944616 13.247 0.84668 13.1262 0.84668" stroke="#131F2A" stroke-width="1.5"/>
</g>
<defs>
<clipPath id="clip0_744_1113">
<rect width="14" height="14" fill="white"/>
</clipPath>
</defs>
</svg>
