<svg width="119" height="19" viewBox="0 0 119 19" fill="none" xmlns="http://www.w3.org/2000/svg">
<g filter="url(#filter0_b_318_949)">
<path d="M8 0H111L119 9.5L111 19H8L0 9.5L8 0Z" fill="#8448FB" fill-opacity="0.1"/>
<path d="M8 0H111L119 9.5L111 19H8L0 9.5L8 0Z" fill="url(#paint0_linear_318_949)"/>
<path d="M8 0H111L119 9.5L111 19H8L0 9.5L8 0Z" fill="black" fill-opacity="0.15"/>
<path d="M8 0H111L119 9.5L111 19H8L0 9.5L8 0Z" fill="url(#paint1_linear_318_949)"/>
</g>
<defs>
<filter id="filter0_b_318_949" x="-40" y="-40" width="199" height="99" filterUnits="userSpaceOnUse" color-interpolation-filters="sRGB">
<feFlood flood-opacity="0" result="BackgroundImageFix"/>
<feGaussianBlur in="BackgroundImage" stdDeviation="20"/>
<feComposite in2="SourceAlpha" operator="in" result="effect1_backgroundBlur_318_949"/>
<feBlend mode="normal" in="SourceGraphic" in2="effect1_backgroundBlur_318_949" result="shape"/>
</filter>
<linearGradient id="paint0_linear_318_949" x1="-4.42126" y1="4.03749" x2="174.046" y2="103.455" gradientUnits="userSpaceOnUse">
<stop stop-color="#AC82FF"/>
<stop offset="1" stop-color="#1C85C4"/>
</linearGradient>
<linearGradient id="paint1_linear_318_949" x1="50.0649" y1="-26.3229" x2="52.4758" y2="19.3706" gradientUnits="userSpaceOnUse">
<stop stop-color="#BC3926"/>
<stop offset="1" stop-color="#EEB854"/>
</linearGradient>
</defs>
</svg>
